<svg xmlns="http://www.w3.org/2000/svg" version="1.1" xmlns:xlink="http://www.w3.org/1999/xlink" xmlns:svgjs="http://svgjs.dev/svgjs" width="1500" height="284" viewBox="0 0 1500 284"><g transform="matrix(1,0,0,1,-0.9090909090909918,-1.1212576446329194)"><svg viewBox="0 0 396 75" data-background-color="#ffffff" preserveAspectRatio="xMidYMid meet" height="284" width="1500" xmlns="http://www.w3.org/2000/svg" xmlns:xlink="http://www.w3.org/1999/xlink"><g id="tight-bounds" transform="matrix(1,0,0,1,0.2400000000000091,0.2961067723502424)"><svg viewBox="0 0 395.52 74.40778645529954" height="74.40778645529954" width="395.52"><g><svg viewBox="0 0 500.2989419398311 94.11948026818177" height="74.40778645529954" width="395.52"><g transform="matrix(1,0,0,1,104.7789419398311,13.007829762100378)"><svg viewBox="0 0 395.52 68.10382074398102" height="68.10382074398102" width="395.52"><g id="textblocktransform"><svg viewBox="0 0 395.52 68.10382074398102" height="68.10382074398102" width="395.52" id="textblock"><g><svg viewBox="0 0 395.52 37.01628268816196" height="37.01628268816196" width="395.52"><g transform="matrix(1,0,0,1,0,0)"><svg width="395.52" viewBox="1.37 -38.09 520.9 48.760000000000005" height="37.01628268816196" data-palette-color="#4b91f1"><path d="M24.15 0L9.81 0 9.81-4 13.65-4.74 13.65-30.44 6.84-30.44 6.37-26.05 1.37-26.05 1.37-35.55 32.62-35.55 32.62-26.05 27.59-26.05 27.12-30.44 20.29-30.44 20.29-4.74 24.15-4 24.15 0ZM48.09 0L34.37 0 34.37-4 37.91-4.74 37.91-21.66 34.1-22.39 34.1-26.42 44.06-26.42 44.36-23.12 44.41-22.56Q45.41-24.68 46.9-25.79 48.39-26.9 50.41-26.9L50.41-26.9Q51.07-26.9 51.84-26.79 52.61-26.68 53.15-26.51L53.15-26.51 52.39-20.39 48.9-20.58Q47.31-20.65 46.3-20 45.29-19.34 44.55-18.12L44.55-18.12 44.55-4.74 48.09-4 48.09 0ZM63.81 0.51L63.81 0.51Q59.83 0.51 57.55-1.57 55.27-3.66 55.27-7.3L55.27-7.3Q55.27-9.79 56.62-11.68 57.98-13.57 60.63-14.64 63.28-15.7 67.08-15.7L67.08-15.7 70.84-15.7 70.84-17.77Q70.84-19.78 69.66-21 68.48-22.22 66.18-22.22L66.18-22.22Q64.94-22.22 63.95-21.91 62.96-21.61 62.18-21.04L62.18-21.04 61.62-17.5 56.78-17.5 56.73-24.19Q58.74-25.42 61.14-26.16 63.54-26.9 66.5-26.9L66.5-26.9Q71.6-26.9 74.54-24.52 77.49-22.14 77.49-17.7L77.49-17.7 77.49-6.45Q77.49-5.91 77.5-5.4 77.51-4.88 77.58-4.39L77.58-4.39 80.29-4 80.29 0 71.87 0Q71.6-0.76 71.37-1.55 71.14-2.34 71.04-3.15L71.04-3.15Q69.75-1.51 67.95-0.5 66.16 0.51 63.81 0.51ZM65.45-4.49L65.45-4.49Q67.13-4.49 68.61-5.27 70.09-6.05 70.84-7.25L70.84-7.25 70.84-11.55 67.06-11.55Q64.5-11.55 63.19-10.36 61.88-9.18 61.88-7.57L61.88-7.57Q61.88-6.1 62.81-5.3 63.74-4.49 65.45-4.49ZM98.85 0L92.23 0 83.95-21.95 81.12-22.39 81.12-26.42 93.57-26.42 93.57-22.39 90.67-21.9 95.04-9.28 95.65-7.2 95.79-7.2 96.5-9.28 101.09-21.9 97.8-22.39 97.8-26.42 110.22-26.42 110.22-22.39 107.32-21.9 98.85 0ZM124.38 0.51L124.38 0.51Q120.62 0.51 117.82-1.16 115.03-2.83 113.49-5.77 111.95-8.72 111.95-12.5L111.95-12.5 111.95-13.5Q111.95-17.38 113.43-20.42 114.91-23.46 117.57-25.18 120.23-26.9 123.72-26.9L123.72-26.9Q127.31-26.9 129.75-25.48 132.19-24.05 133.44-21.39 134.68-18.73 134.68-14.99L134.68-14.99 134.68-11.3 118.84-11.3 118.79-11.16Q118.89-9.25 119.64-7.78 120.4-6.3 121.77-5.44 123.13-4.59 125.09-4.59L125.09-4.59Q127.16-4.59 128.88-5.13 130.61-5.66 132.17-6.71L132.17-6.71 134.07-2.59Q132.49-1.27 130.04-0.38 127.6 0.51 124.38 0.51ZM118.84-15.94L118.91-15.82 128.43-15.82 128.43-16.46Q128.43-18.12 127.94-19.35 127.46-20.58 126.44-21.26 125.43-21.95 123.82-21.95L123.82-21.95Q122.35-21.95 121.3-21.15 120.25-20.36 119.64-19.01 119.03-17.65 118.84-15.94L118.84-15.94ZM151.48 0L137.71 0 137.71-4 141.27-4.74 141.27-33.33 137.44-34.06 137.44-38.09 147.91-38.09 147.91-4.74 151.48-4 151.48 0ZM188.87 0L174.54 0 174.54-4 178.38-4.74 178.38-30.44 171.56-30.44 171.1-26.05 166.1-26.05 166.1-35.55 197.35-35.55 197.35-26.05 192.32-26.05 191.85-30.44 185.02-30.44 185.02-4.74 188.87-4 188.87 0ZM210.7 0.51L210.7 0.51Q206.82 0.51 204.06-1.2 201.3-2.91 199.81-5.94 198.32-8.98 198.32-12.94L198.32-12.94 198.32-13.45Q198.32-17.38 199.81-20.41 201.3-23.44 204.06-25.17 206.82-26.9 210.65-26.9L210.65-26.9Q214.51-26.9 217.27-25.18 220.02-23.46 221.5-20.43 222.98-17.41 222.98-13.45L222.98-13.45 222.98-12.94Q222.98-8.98 221.5-5.94 220.02-2.91 217.27-1.2 214.51 0.51 210.7 0.51ZM210.7-4.59L210.7-4.59Q212.63-4.59 213.88-5.64 215.14-6.69 215.75-8.58 216.36-10.47 216.36-12.94L216.36-12.94 216.36-13.45Q216.36-15.89 215.75-17.77 215.14-19.65 213.87-20.72 212.6-21.78 210.65-21.78L210.65-21.78Q208.7-21.78 207.44-20.72 206.18-19.65 205.57-17.77 204.96-15.89 204.96-13.45L204.96-13.45 204.96-12.94Q204.96-10.45 205.57-8.57 206.18-6.69 207.45-5.64 208.72-4.59 210.7-4.59ZM240.11 0L234.25 0 227.96-21.83 224.78-22.39 224.78-26.42 237.16-26.42 237.16-22.39 234.28-21.85 236.96-10.99 237.53-8.72 237.67-8.72 238.43-10.99 243.9-26.42 248.54-26.42 253.83-10.82 254.62-8.35 254.76-8.35 255.52-10.82 258.55-21.85 255.42-22.39 255.42-26.42 267.56-26.42 267.56-22.39 264.5-21.83 257.77 0 252.05 0 247.12-13.67 246.17-16.87 246.02-16.85 245.09-13.65 240.11 0ZM283.03 0L269.73 0 269.73-4 273.27-4.74 273.27-21.66 269.46-22.39 269.46-26.42 279.42-26.42 279.74-22.61Q281.05-24.63 283.02-25.77 284.98-26.9 287.48-26.9L287.48-26.9Q291.45-26.9 293.71-24.4 295.97-21.9 295.97-16.55L295.97-16.55 295.97-4.74 299.51-4 299.51 0 286.06 0 286.06-4 289.31-4.74 289.31-16.5Q289.31-19.34 288.18-20.52 287.06-21.7 284.84-21.7L284.84-21.7Q283.18-21.7 281.95-20.98 280.71-20.26 279.91-18.95L279.91-18.95 279.91-4.74 283.03-4 283.03 0ZM328.56 0L314.25 0 314.25-4 318.09-4.74 318.09-30.79 314.25-31.52 314.25-35.55 328.56-35.55 328.56-31.52 324.73-30.79 324.73-20.09 339.74-20.09 339.74-30.79 335.91-31.52 335.91-35.55 339.74-35.55 346.38-35.55 350.21-35.55 350.21-31.52 346.38-30.79 346.38-4.74 350.21-4 350.21 0 335.91 0 335.91-4 339.74-4.74 339.74-14.97 324.73-14.97 324.73-4.74 328.56-4 328.56 0ZM365.76 0.51L365.76 0.51Q361.88 0.51 359.12-1.2 356.36-2.91 354.87-5.94 353.39-8.98 353.39-12.94L353.39-12.94 353.39-13.45Q353.39-17.38 354.87-20.41 356.36-23.44 359.12-25.17 361.88-26.9 365.71-26.9L365.71-26.9Q369.57-26.9 372.33-25.18 375.09-23.46 376.57-20.43 378.04-17.41 378.04-13.45L378.04-13.45 378.04-12.94Q378.04-8.98 376.57-5.94 375.09-2.91 372.33-1.2 369.57 0.51 365.76 0.51ZM365.76-4.59L365.76-4.59Q367.69-4.59 368.95-5.64 370.21-6.69 370.82-8.58 371.43-10.47 371.43-12.94L371.43-12.94 371.43-13.45Q371.43-15.89 370.82-17.77 370.21-19.65 368.94-20.72 367.67-21.78 365.71-21.78L365.71-21.78Q363.76-21.78 362.5-20.72 361.25-19.65 360.64-17.77 360.03-15.89 360.03-13.45L360.03-13.45 360.03-12.94Q360.03-10.45 360.64-8.57 361.25-6.69 362.52-5.64 363.79-4.59 365.76-4.59ZM394.23 0L380.46 0 380.46-4 384.02-4.74 384.02-33.33 380.19-34.06 380.19-38.09 390.66-38.09 390.66-4.74 394.23-4 394.23 0ZM410.29 0L396.57 0 396.57-4 400.11-4.74 400.11-21.66 396.28-22.39 396.28-26.42 406.75-26.42 406.75-4.74 410.29-4 410.29 0ZM406.75-32.2L399.86-32.2 399.86-38.09 406.75-38.09 406.75-32.2ZM423.06 0.51L423.06 0.51Q419.91 0.51 417.64-1.1 415.37-2.71 414.16-5.63 412.95-8.54 412.95-12.43L412.95-12.43 412.95-12.94Q412.95-17.11 414.16-20.26 415.37-23.41 417.64-25.16 419.91-26.9 423.03-26.9L423.03-26.9Q425.28-26.9 426.94-26.04 428.6-25.17 429.79-23.56L429.79-23.56 429.79-33.33 425.96-34.06 425.96-38.09 429.79-38.09 436.43-38.09 436.43-4.74 439.97-4 439.97 0 430.7 0 430.18-3.2Q428.94-1.37 427.18-0.43 425.42 0.51 423.06 0.51ZM424.98-4.69L424.98-4.69Q426.62-4.69 427.82-5.4 429.01-6.1 429.79-7.42L429.79-7.42 429.79-18.85Q429.04-20.19 427.84-20.95 426.64-21.7 425.03-21.7L425.03-21.7Q423.15-21.7 421.94-20.59 420.74-19.48 420.16-17.52 419.59-15.55 419.59-12.94L419.59-12.94 419.59-12.43Q419.59-8.84 420.86-6.76 422.13-4.69 424.98-4.69ZM451.25 0.51L451.25 0.51Q447.27 0.51 444.99-1.57 442.71-3.66 442.71-7.3L442.71-7.3Q442.71-9.79 444.06-11.68 445.42-13.57 448.07-14.64 450.71-15.7 454.52-15.7L454.52-15.7 458.28-15.7 458.28-17.77Q458.28-19.78 457.1-21 455.91-22.22 453.62-22.22L453.62-22.22Q452.37-22.22 451.39-21.91 450.4-21.61 449.62-21.04L449.62-21.04 449.05-17.5 444.22-17.5 444.17-24.19Q446.17-25.42 448.58-26.16 450.98-26.9 453.94-26.9L453.94-26.9Q459.04-26.9 461.98-24.52 464.92-22.14 464.92-17.7L464.92-17.7 464.92-6.45Q464.92-5.91 464.94-5.4 464.95-4.88 465.02-4.39L465.02-4.39 467.73-4 467.73 0 459.31 0Q459.04-0.76 458.81-1.55 458.58-2.34 458.48-3.15L458.48-3.15Q457.18-1.51 455.39-0.5 453.6 0.51 451.25 0.51ZM452.89-4.49L452.89-4.49Q454.57-4.49 456.05-5.27 457.53-6.05 458.28-7.25L458.28-7.25 458.28-11.55 454.5-11.55Q451.94-11.55 450.63-10.36 449.32-9.18 449.32-7.57L449.32-7.57Q449.32-6.1 450.25-5.3 451.18-4.49 452.89-4.49ZM476.57 10.67L476.57 10.67Q475.74 10.67 474.72 10.51 473.71 10.35 472.88 10.13L472.88 10.13 473.64 5.2Q474.08 5.27 474.67 5.32 475.27 5.37 475.64 5.37L475.64 5.37Q477.2 5.37 478.28 4.49 479.35 3.61 479.94 2L479.94 2 480.64 0.12 471.71-21.92 468.53-22.39 468.53-26.42 481.96-26.42 481.96-22.39 478.71-21.9 483.08-9.91 483.74-8.03 483.89-8.03 489.07-21.92 485.84-22.39 485.84-26.42 498.44-26.42 498.44-22.39 495.54-21.97 485.38 3.96Q484.65 5.81 483.54 7.34 482.43 8.86 480.73 9.77 479.03 10.67 476.57 10.67ZM511.7 0.51L511.7 0.51Q508.79 0.51 506.29-0.04 503.79-0.59 501.39-1.66L501.39-1.66 501.32-8.89 506.01-8.89 506.93-5.08Q507.89-4.64 508.94-4.39 509.99-4.15 511.31-4.15L511.31-4.15Q513.82-4.15 514.86-4.99 515.89-5.83 515.89-7.1L515.89-7.1Q515.89-8.33 514.8-9.22 513.7-10.11 510.55-10.77L510.55-10.77Q505.84-11.77 503.61-13.78 501.39-15.8 501.39-18.95L501.39-18.95Q501.39-21.14 502.53-22.92 503.66-24.71 505.93-25.79 508.2-26.88 511.62-26.88L511.62-26.88Q514.63-26.88 517.03-26.27 519.43-25.66 521.1-24.71L521.1-24.71 521.22-17.72 516.55-17.72 515.8-21.19Q515.09-21.7 514.14-21.98 513.18-22.27 511.99-22.27L511.99-22.27Q510.04-22.27 508.95-21.44 507.86-20.61 507.86-19.34L507.86-19.34Q507.86-18.6 508.23-17.99 508.6-17.38 509.66-16.86 510.72-16.33 512.77-15.87L512.77-15.87Q517.8-14.72 520.03-12.82 522.27-10.91 522.27-7.64L522.27-7.64Q522.27-4.03 519.64-1.76 517.02 0.51 511.7 0.51Z" opacity="1" transform="matrix(1,0,0,1,0,0)" fill="#4b91f1" class="wordmark-text-0" data-fill-palette-color="primary" id="text-0"></path></svg></g></svg></g><g transform="matrix(1,0,0,1,0,45.75493864005248)"><svg viewBox="0 0 232.209792 22.348882103928535" height="22.348882103928535" width="232.209792"><g transform="matrix(1,0,0,1,0,0)"><svg width="232.209792" viewBox="0 -36.1 520.49 50.1" height="22.348882103928535" data-palette-color="#4b91f1"><path d="M2.3 4.35L2.3 4.35Q0.8 3.55 0.4 2.7 0 1.85 0 1.25L0 1.25Q0-0.1 0.98-2.38 1.95-4.65 3.6-7.6 5.25-10.55 7.35-13.75L7.35-13.75Q5.8-13.85 4.4-13.9 3-13.95 0.8-13.95L0.8-13.95 0-13.95Q0.7-15.75 2.23-16.48 3.75-17.2 5.8-17.2L5.8-17.2Q6.65-17.2 7.58-17.1 8.5-17 9.5-16.9L9.5-16.9Q12-20.5 14.43-23.7 16.85-26.9 19.03-29.48 21.2-32.05 22.9-33.7L22.9-33.7Q25.3-36.1 26.4-36.1L26.4-36.1Q27.1-36.1 27.98-35.55 28.85-35 29.8-34.15L29.8-34.15Q29.3-33.75 28.53-32.1 27.75-30.45 26.88-27.93 26-25.4 25.13-22.4 24.25-19.4 23.55-16.3 22.85-13.2 22.43-10.38 22-7.55 22-5.4L22-5.4Q22-3.4 22.4-2.43 22.8-1.45 23.75-1.45L23.75-1.45Q24.9-1.45 26.6-3.2 28.3-4.95 30.4-8.9L30.4-8.9 31.3-7.95Q29.75-3.85 27.28-1.2 24.8 1.45 22 1.45L22 1.45Q19.6 1.45 18.6-0.63 17.6-2.7 17.6-6.3L17.6-6.3Q17.6-7.45 17.75-8.9 17.9-10.35 18.25-12.5L18.25-12.5Q16.05-12.85 14.35-13.05 12.65-13.25 11.1-13.45L11.1-13.45Q8.7-9.2 6.45-4.65 4.2-0.1 2.3 4.35ZM18.75-14.95L18.75-14.95Q19.4-17.9 20.28-20.93 21.15-23.95 22.13-26.73 23.1-29.5 24.05-31.7L24.05-31.7Q22.55-30.5 20.7-28.25 18.85-26 16.82-22.95 14.8-19.9 12.7-16.3L12.7-16.3Q14.2-16 15.7-15.65 17.2-15.3 18.75-14.95ZM32.45 1.5L32.45 1.5Q31.5 1.5 30.52 1.03 29.55 0.55 28.87-0.45 28.2-1.45 28.2-3L28.2-3Q28.2-4.65 29-6.7 29.8-8.75 31.17-10.8 32.55-12.85 34.37-14.55 36.2-16.25 38.25-17.3 40.3-18.35 42.4-18.35L42.4-18.35Q43.55-18.35 44.2-17.98 44.85-17.6 44.85-16.75L44.85-16.75Q44.85-16.5 44.75-16.18 44.65-15.85 44.25-15.6L44.25-15.6Q44.05-15.9 43.55-16.03 43.05-16.15 42.5-16.15L42.5-16.15Q40.85-16.15 39.35-15.23 37.85-14.3 36.6-12.85 35.35-11.4 34.42-9.7 33.5-8 33-6.43 32.5-4.85 32.5-3.7L32.5-3.7Q32.5-2.75 32.9-2.18 33.3-1.6 34.1-1.6L34.1-1.6Q35.45-1.6 37.32-3.18 39.2-4.75 41.17-7.73 43.15-10.7 44.75-14.85L44.75-14.85Q45.85-17.7 47.05-20.68 48.25-23.65 49.45-26.4 50.65-29.15 51.82-31.3 53-33.45 54.07-34.73 55.15-36 56.05-36L56.05-36Q56.6-36 57.02-35.58 57.45-35.15 57.45-34.5L57.45-34.5Q57.45-33.65 56.62-31.78 55.8-29.9 54.52-27.3 53.25-24.7 51.77-21.68 50.3-18.65 49.02-15.48 47.75-12.3 46.92-9.22 46.1-6.15 46.1-3.45L46.1-3.45Q46.1-2.25 46.32-1.83 46.55-1.4 47.1-1.4L47.1-1.4Q48.2-1.4 49.55-2.25 50.9-3.1 52.3-4.78 53.7-6.45 54.85-8.8L54.85-8.8 55.8-8Q54.7-5.25 53-3.15 51.3-1.05 49.35 0.13 47.4 1.3 45.5 1.3L45.5 1.3Q43.45 1.3 42.65 0 41.85-1.3 41.85-3.05L41.85-3.05Q41.85-3.85 41.97-4.67 42.1-5.5 42.25-6.3L42.25-6.3Q40.7-4.05 38.97-2.27 37.25-0.5 35.6 0.5 33.95 1.5 32.45 1.5ZM57 1.5L57 1.5Q56.05 1.5 55.07 1.03 54.09 0.55 53.42-0.45 52.75-1.45 52.75-3L52.75-3Q52.75-4.65 53.55-6.7 54.34-8.75 55.72-10.8 57.09-12.85 58.92-14.55 60.75-16.25 62.8-17.3 64.84-18.35 66.95-18.35L66.95-18.35Q68.09-18.35 68.75-17.98 69.4-17.6 69.4-16.75L69.4-16.75Q69.4-16.5 69.3-16.18 69.2-15.85 68.8-15.6L68.8-15.6Q68.59-15.9 68.09-16.03 67.59-16.15 67.05-16.15L67.05-16.15Q65.4-16.15 63.9-15.23 62.4-14.3 61.15-12.85 59.9-11.4 58.97-9.7 58.05-8 57.55-6.43 57.05-4.85 57.05-3.7L57.05-3.7Q57.05-2.75 57.45-2.18 57.84-1.6 58.65-1.6L58.65-1.6Q60-1.6 61.87-3.18 63.75-4.75 65.72-7.73 67.7-10.7 69.3-14.85L69.3-14.85Q70.4-17.7 71.59-20.68 72.8-23.65 74-26.4 75.2-29.15 76.37-31.3 77.55-33.45 78.62-34.73 79.7-36 80.59-36L80.59-36Q81.15-36 81.57-35.58 82-35.15 82-34.5L82-34.5Q82-33.65 81.17-31.78 80.34-29.9 79.07-27.3 77.8-24.7 76.32-21.68 74.84-18.65 73.57-15.48 72.3-12.3 71.47-9.22 70.65-6.15 70.65-3.45L70.65-3.45Q70.65-2.25 70.87-1.83 71.09-1.4 71.65-1.4L71.65-1.4Q72.75-1.4 74.09-2.25 75.45-3.1 76.84-4.78 78.25-6.45 79.4-8.8L79.4-8.8 80.34-8Q79.25-5.25 77.55-3.15 75.84-1.05 73.9 0.13 71.95 1.3 70.05 1.3L70.05 1.3Q68 1.3 67.2 0 66.4-1.3 66.4-3.05L66.4-3.05Q66.4-3.85 66.52-4.67 66.65-5.5 66.8-6.3L66.8-6.3Q65.25-4.05 63.52-2.27 61.8-0.5 60.15 0.5 58.5 1.5 57 1.5ZM82.09 1.5L82.09 1.5Q79.89 1.5 78.79 0.2 77.69-1.1 77.69-2.95L77.69-2.95Q77.69-4.1 78.09-5.85 78.49-7.6 79.22-9.53 79.94-11.45 80.89-13.15 81.84-14.85 82.94-15.93 84.04-17 85.14-17L85.14-17Q85.74-17 86.19-16.65 86.64-16.3 86.64-15.55L86.64-15.55Q86.64-14.9 85.87-13.6 85.09-12.3 84.07-10.6 83.04-8.9 82.27-7.08 81.49-5.25 81.49-3.6L81.49-3.6Q81.49-2 82.07-1.48 82.64-0.95 83.74-0.95L83.74-0.95Q85.44-0.95 87.44-2.65 89.44-4.35 91.59-8.6L91.59-8.6 92.34-7.8Q90.59-3.4 87.89-0.95 85.19 1.5 82.09 1.5ZM87.99-21.05L87.99-21.05Q87.04-21.05 86.27-21.53 85.49-22 85.49-23L85.49-23Q85.49-24.2 86.79-25.05 88.09-25.9 89.49-25.9L89.49-25.9Q90.39-25.9 91.02-25.5 91.64-25.1 91.64-24.05L91.64-24.05Q91.64-23 90.49-22.03 89.34-21.05 87.99-21.05ZM107.14 1L107.14 1Q105.19 1 104.17 0.03 103.14-0.95 103.14-2.45L103.14-2.45Q103.14-3.45 103.49-4.58 103.84-5.7 104.19-6.85 104.54-8 104.54-9.05L104.54-9.05Q104.54-10.15 104.02-10.58 103.49-11 102.79-11L102.79-11Q101.29-11 99.72-9.78 98.14-8.55 96.67-6.7 95.19-4.85 93.89-2.85 92.59-0.85 91.64 0.75L91.64 0.75Q90.69 0.75 89.84 0.43 88.99 0.1 88.39-0.7L88.39-0.7Q88.44-0.95 88.97-2.23 89.49-3.5 90.14-5.28 90.79-7.05 91.29-9 91.79-10.95 91.79-12.55L91.79-12.55Q92.14-12.95 92.87-13.35 93.59-13.75 94.39-13.75L94.39-13.75Q96.14-13.75 96.14-12.25L96.14-12.25Q96.14-11.65 95.92-10.48 95.69-9.3 95.29-7.8L95.29-7.8Q96.59-9.55 98.14-11.1 99.69-12.65 101.37-13.63 103.04-14.6 104.74-14.6L104.74-14.6Q106.89-14.6 107.92-13.15 108.94-11.7 108.94-9.95L108.94-9.95Q108.94-8.45 108.44-7.15 107.94-5.85 107.47-4.7 106.99-3.55 106.99-2.45L106.99-2.45Q106.99-1.65 107.37-1.33 107.74-1 108.19-1L108.19-1Q109.39-1 110.69-2.15 111.99-3.3 113.17-5.08 114.34-6.85 115.24-8.65L115.24-8.65 116.09-7.95Q115.04-5.5 113.72-3.48 112.39-1.45 110.77-0.23 109.14 1 107.14 1ZM116.44 14L116.44 14Q115.19 14 114.11 13.25 113.04 12.5 113.04 10.8L113.04 10.8Q113.04 9.2 113.96 7.93 114.89 6.65 116.41 5.58 117.94 4.5 119.69 3.6 121.44 2.7 123.09 1.9L123.09 1.9Q123.64 0.55 124.14-1 124.64-2.55 125.09-4.35L125.09-4.35Q123.34-2.15 121.41-0.7 119.49 0.75 117.49 0.75L117.49 0.75Q115.49 0.75 114.31-0.65 113.14-2.05 113.14-4.35L113.14-4.35Q113.14-7 114.46-9.33 115.79-11.65 117.89-13.48 119.99-15.3 122.39-16.32 124.79-17.35 126.99-17.35L126.99-17.35Q128.59-17.35 129.39-16.78 130.19-16.2 130.19-15.45L130.19-15.45Q130.19-14.85 129.84-14.5 129.49-14.15 129.39-14.1L129.39-14.1Q128.89-14.65 128.36-14.83 127.84-15 127.14-15L127.14-15Q125.19-15 123.39-13.9 121.59-12.8 120.21-11.08 118.84-9.35 118.04-7.5 117.24-5.65 117.24-4.15L117.24-4.15Q117.24-3.15 117.69-2.63 118.14-2.1 118.79-2.1L118.79-2.1Q120.19-2.1 122.19-3.93 124.19-5.75 126.04-8.35L126.04-8.35Q126.14-8.75 126.21-9.08 126.29-9.4 126.34-9.7L126.34-9.7Q126.84-11.7 127.54-12.65 128.24-13.6 129.49-13.6L129.49-13.6Q129.74-13.6 130.11-13.55 130.49-13.5 130.94-13.4L130.94-13.4Q130.94-12.5 130.44-10.45 129.94-8.4 129.09-5.68 128.24-2.95 127.19-0.1L127.19-0.1Q128.74-0.75 130.34-1.93 131.94-3.1 133.29-4.78 134.64-6.45 135.34-8.5L135.34-8.5 136.24-7.6Q135.44-5.3 133.76-3.4 132.09-1.5 130.14-0.13 128.19 1.25 126.54 2L126.54 2Q125.19 5.3 123.61 8.03 122.04 10.75 120.26 12.38 118.49 14 116.44 14ZM116.24 11.7L116.24 11.7Q117.14 11.7 118.71 10 120.29 8.3 122.14 4.25L122.14 4.25Q120.29 5.15 118.74 6.1 117.19 7.05 116.24 8.1 115.29 9.15 115.29 10.3L115.29 10.3Q115.29 10.95 115.56 11.33 115.84 11.7 116.24 11.7ZM152.28 4.3L152.28 4.3Q150.98 4.3 149.56 3.83 148.13 3.35 147.16 1.9 146.18 0.45 146.18-2.45L146.18-2.45Q146.18-4.45 146.66-6.43 147.13-8.4 148.03-9.73 148.93-11.05 150.28-11.05L150.28-11.05Q150.98-11.05 152.23-10.5L152.23-10.5Q151.28-8.15 150.81-6.1 150.33-4.05 150.33-2.45L150.33-2.45Q150.33-0.45 151.18 0.7 152.03 1.85 153.43 1.85L153.43 1.85Q154.63 1.85 155.66 0.78 156.68-0.3 157.68-3.05L157.68-3.05Q158.43-5.2 159.28-8.22 160.13-11.25 160.98-14.65 161.83-18.05 162.58-21.45 163.33-24.85 163.93-27.78 164.53-30.7 164.88-32.7L164.88-32.7Q162.48-32.65 160.66-32.52 158.83-32.4 157.31-32.15 155.78-31.9 154.18-31.55L154.18-31.55Q154.53-33.9 156.68-34.9 158.83-35.9 163.18-35.9L163.18-35.9Q165.28-35.9 167.53-35.7 169.78-35.5 171.71-35.25 173.63-35 174.68-34.8L174.68-34.8Q173.88-33.45 172.46-33.1 171.03-32.75 170.13-32.75L170.13-32.75Q169.33-32.75 168.48-32.73 167.63-32.7 167.23-32.7L167.23-32.7Q167.58-32.25 167.73-31.73 167.88-31.2 167.88-30.75L167.88-30.75Q167.88-30.1 167.53-27.93 167.18-25.75 166.56-22.63 165.93-19.5 165.08-16 164.23-12.5 163.21-9.15 162.18-5.8 160.98-3.15L160.98-3.15Q159.63-0.25 158.23 1.38 156.83 3 155.33 3.65 153.83 4.3 152.28 4.3ZM171.03 1.6L171.03 1.6Q168.78 1.6 167.96 0.13 167.13-1.35 167.13-3.1L167.13-3.1Q167.13-4.7 167.63-6.38 168.13-8.05 169.01-9.5 169.88-10.95 170.96-11.83 172.03-12.7 173.13-12.7L173.13-12.7Q173.48-12.7 173.96-12.58 174.43-12.45 174.63-12.2L174.63-12.2Q174.03-11.45 173.41-10.35 172.78-9.25 172.26-8.03 171.73-6.8 171.43-5.55 171.13-4.3 171.13-3.25L171.13-3.25Q171.13-2.25 171.51-1.6 171.88-0.95 172.83-0.95L172.83-0.95Q173.78-0.95 175.11-2.02 176.43-3.1 177.63-4.5L177.63-4.5Q176.03-5.95 175.33-7.68 174.63-9.4 174.63-11.85L174.63-11.85Q174.63-12.9 175.16-14.25 175.68-15.6 176.86-16.6 178.03-17.6 180.03-17.6L180.03-17.6Q182.18-17.6 183.06-16.4 183.93-15.2 183.93-13.55L183.93-13.55Q183.93-11.7 182.96-9.4 181.98-7.1 180.63-5.05L180.63-5.05Q181.23-4.75 182.03-4.75L182.03-4.75Q182.78-4.75 183.83-5.1 184.88-5.45 185.88-6.28 186.88-7.1 187.48-8.5L187.48-8.5 188.38-7.85Q187.28-5.3 185.46-4.13 183.63-2.95 181.88-2.95L181.88-2.95Q181.23-2.95 180.58-3.08 179.93-3.2 179.38-3.4L179.38-3.4Q177.68-1.4 175.48 0.1 173.28 1.6 171.03 1.6ZM178.93-6.1L178.93-6.1Q180.13-7.85 180.98-9.85 181.83-11.85 181.83-13.55L181.83-13.55Q181.83-14.7 181.48-15.23 181.13-15.75 180.43-15.75L180.43-15.75Q179.48-15.75 178.48-14.4 177.48-13.05 177.48-11L177.48-11Q177.48-9.95 177.86-8.45 178.23-6.95 178.93-6.1ZM188.73 14L188.73 14Q187.48 14 186.4 13.23 185.33 12.45 185.33 10.75L185.33 10.75Q185.33 9.15 186.28 7.88 187.23 6.6 188.73 5.53 190.23 4.45 191.95 3.58 193.68 2.7 195.28 1.95L195.28 1.95Q195.83 0.5 196.5-1.73 197.18-3.95 197.68-5.85L197.68-5.85Q196.13-3.7 194.38-2.05 192.63-0.4 190.48-0.4L190.48-0.4Q189.58-0.4 188.58-0.78 187.58-1.15 186.9-2.08 186.23-3 186.23-4.55L186.23-4.55Q186.23-5.85 186.7-7.7 187.18-9.55 187.9-11.33 188.63-13.1 189.43-14.28 190.23-15.45 190.83-15.45L190.83-15.45Q191.13-15.45 191.7-15.23 192.28-15 192.83-14.63 193.38-14.25 193.53-13.8L193.53-13.8Q193.08-13.2 192.53-12.08 191.98-10.95 191.48-9.58 190.98-8.2 190.65-6.9 190.33-5.6 190.33-4.65L190.33-4.65Q190.33-3.9 190.63-3.35 190.93-2.8 191.78-2.8L191.78-2.8Q192.88-2.8 194.05-3.7 195.23-4.6 196.35-6 197.48-7.4 198.38-8.85L198.38-8.85Q198.48-9.2 198.58-9.95 198.68-10.7 198.93-11.5L198.93-11.5Q199.18-12.35 199.8-13.05 200.43-13.75 201.58-13.75L201.58-13.75Q201.98-13.75 202.33-13.7 202.68-13.65 203.18-13.55L203.18-13.55Q203.18-12.8 202.65-10.63 202.13-8.45 201.28-5.6 200.43-2.75 199.38 0.1L199.38 0.1Q201.48-0.75 203.75-2.73 206.03-4.7 207.43-8.35L207.43-8.35 208.28-7.65Q207.53-5.15 206-3.3 204.48-1.45 202.58-0.15 200.68 1.15 198.73 2L198.73 2Q197.38 5.25 195.8 8 194.23 10.75 192.48 12.38 190.73 14 188.73 14ZM188.23 12.15L188.23 12.15Q189.18 12.15 190.88 10.15 192.58 8.15 194.33 4.15L194.33 4.15Q192.73 4.95 191.1 6.03 189.48 7.1 188.38 8.3 187.28 9.5 187.28 10.75L187.28 10.75Q187.28 11.25 187.5 11.7 187.73 12.15 188.23 12.15ZM230.97 4.35L230.97 4.35Q228.22 4.35 227.17 3.28 226.12 2.2 226.07 0.5L226.07 0.5Q226.07-0.95 226.65-2.98 227.22-5 227.82-6.85L227.82-6.85Q229.02-10.4 230.32-13.85 231.62-17.3 232.95-20.5 234.27-23.7 235.5-26.6 236.72-29.5 237.77-31.95L237.77-31.95Q234.37-31.9 231.9-31.75 229.42-31.6 227.37-31.38 225.32-31.15 223.12-30.75L223.12-30.75Q223.37-32.85 225.1-33.98 226.82-35.1 229.72-35.55 232.62-36 236.37-36L236.37-36Q238.32-36 240.05-35.93 241.77-35.85 243.35-35.7 244.92-35.55 246.42-35.4L246.42-35.4Q249.57-35.1 251.45-35 253.32-34.9 254.12-34.9L254.12-34.9Q252.62-33.5 250.35-32.88 248.07-32.25 245.57-32.1 243.07-31.95 240.82-31.95L240.82-31.95Q238.42-26.05 236.42-19.7 234.42-13.35 232.72-7.15L232.72-7.15Q232.07-4.75 231.65-3.08 231.22-1.4 231.02-0.03 230.82 1.35 230.82 2.9L230.82 2.9Q230.82 3.15 230.85 3.48 230.87 3.8 230.97 4.35ZM244.12 1.6L244.12 1.6Q241.87 1.6 241.05 0.13 240.22-1.35 240.22-3.1L240.22-3.1Q240.22-4.7 240.72-6.38 241.22-8.05 242.1-9.5 242.97-10.95 244.05-11.83 245.12-12.7 246.22-12.7L246.22-12.7Q246.57-12.7 247.05-12.58 247.52-12.45 247.72-12.2L247.72-12.2Q247.12-11.45 246.5-10.35 245.87-9.25 245.35-8.03 244.82-6.8 244.52-5.55 244.22-4.3 244.22-3.25L244.22-3.25Q244.22-2.25 244.6-1.6 244.97-0.95 245.92-0.95L245.92-0.95Q246.87-0.95 248.2-2.02 249.52-3.1 250.72-4.5L250.72-4.5Q249.12-5.95 248.42-7.68 247.72-9.4 247.72-11.85L247.72-11.85Q247.72-12.9 248.25-14.25 248.77-15.6 249.95-16.6 251.12-17.6 253.12-17.6L253.12-17.6Q255.27-17.6 256.15-16.4 257.02-15.2 257.02-13.55L257.02-13.55Q257.02-11.7 256.05-9.4 255.07-7.1 253.72-5.05L253.72-5.05Q254.32-4.75 255.12-4.75L255.12-4.75Q255.87-4.75 256.92-5.1 257.97-5.45 258.97-6.28 259.97-7.1 260.57-8.5L260.57-8.5 261.47-7.85Q260.37-5.3 258.55-4.13 256.72-2.95 254.97-2.95L254.97-2.95Q254.32-2.95 253.67-3.08 253.02-3.2 252.47-3.4L252.47-3.4Q250.77-1.4 248.57 0.1 246.37 1.6 244.12 1.6ZM252.02-6.1L252.02-6.1Q253.22-7.85 254.07-9.85 254.92-11.85 254.92-13.55L254.92-13.55Q254.92-14.7 254.57-15.23 254.22-15.75 253.52-15.75L253.52-15.75Q252.57-15.75 251.57-14.4 250.57-13.05 250.57-11L250.57-11Q250.57-9.95 250.95-8.45 251.32-6.95 252.02-6.1ZM286.72 9.35L286.72 9.35Q283.67 9.35 281.59 8.08 279.52 6.8 279.52 4.4L279.52 4.4Q279.52 2.85 280.49 1.6 281.47 0.35 283.31-0.05L283.31-0.05Q283.02 1.3 282.89 2 282.77 2.7 282.77 3.35L282.77 3.35Q282.77 5.35 283.87 6.48 284.97 7.6 287.31 7.6L287.31 7.6Q289.02 7.6 290.34 7.03 291.67 6.45 292.69 5.43 293.72 4.4 294.49 3.05 295.27 1.7 295.84 0.13 296.42-1.45 296.81-3.1L296.81-3.1Q297.62-6.3 298.06-9.38 298.52-12.45 299.12-14.35L299.12-14.35Q297.17-11.2 294.62-9.22 292.06-7.25 288.67-7.25L288.67-7.25Q285.31-7.25 283.92-9.1 282.52-10.95 282.52-13.65L282.52-13.65Q282.52-15.5 282.99-17.68 283.47-19.85 284.12-22.13 284.77-24.4 285.24-26.53 285.72-28.65 285.72-30.3L285.72-30.3Q285.72-31.8 285.14-32.85 284.56-33.9 283.02-33.9L283.02-33.9Q281.67-33.9 280.69-33.13 279.72-32.35 279.09-31.1 278.47-29.85 278.17-28.45 277.87-27.05 277.87-25.75L277.87-25.75Q277.87-24.95 277.99-24.4 278.12-23.85 278.47-22.95L278.47-22.95Q276.02-22.95 275.02-24.08 274.02-25.2 274.02-26.8L274.02-26.8Q274.02-28.3 274.77-29.93 275.52-31.55 276.89-32.93 278.27-34.3 280.12-35.15 281.97-36 284.12-36L284.12-36Q286.12-36 287.42-35.25 288.72-34.5 289.34-33.25 289.97-32 289.97-30.5L289.97-30.5Q289.97-29.4 289.62-27.85 289.27-26.3 288.56-23.75L288.56-23.75Q287.87-21.2 287.31-18.93 286.77-16.65 286.77-14.65L286.77-14.65Q286.77-12.55 287.56-11.25 288.37-9.95 290.31-9.95L290.31-9.95Q292.02-9.95 293.54-10.93 295.06-11.9 296.42-13.58 297.77-15.25 298.87-17.4 299.97-19.55 300.77-21.95L300.77-21.95Q301.42-23.85 302.09-26.23 302.77-28.6 303.54-30.85 304.31-33.1 305.19-34.55 306.06-36 307.06-36L307.06-36Q307.62-36 308.59-35.5 309.56-35 310.47-34.1L310.47-34.1Q309.37-32.45 308.59-30.95 307.81-29.45 307.14-27.7 306.47-25.95 305.77-23.58 305.06-21.2 304.22-17.82 303.37-14.45 302.22-9.65L302.22-9.65Q301.56-7.05 300.74-4.38 299.92-1.7 298.74 0.75 297.56 3.2 295.92 5.15 294.27 7.1 292.02 8.22 289.77 9.35 286.72 9.35ZM309.91 1.6L309.91 1.6Q307.66 1.6 306.84 0.13 306.01-1.35 306.01-3.1L306.01-3.1Q306.01-4.7 306.51-6.38 307.01-8.05 307.89-9.5 308.76-10.95 309.84-11.83 310.91-12.7 312.01-12.7L312.01-12.7Q312.36-12.7 312.84-12.58 313.31-12.45 313.51-12.2L313.51-12.2Q312.91-11.45 312.29-10.35 311.66-9.25 311.14-8.03 310.61-6.8 310.31-5.55 310.01-4.3 310.01-3.25L310.01-3.25Q310.01-2.25 310.39-1.6 310.76-0.95 311.71-0.95L311.71-0.95Q312.66-0.95 313.99-2.02 315.31-3.1 316.51-4.5L316.51-4.5Q314.91-5.95 314.21-7.68 313.51-9.4 313.51-11.85L313.51-11.85Q313.51-12.9 314.04-14.25 314.56-15.6 315.74-16.6 316.91-17.6 318.91-17.6L318.91-17.6Q321.06-17.6 321.94-16.4 322.81-15.2 322.81-13.55L322.81-13.55Q322.81-11.7 321.84-9.4 320.86-7.1 319.51-5.05L319.51-5.05Q320.11-4.75 320.91-4.75L320.91-4.75Q321.66-4.75 322.71-5.1 323.76-5.45 324.76-6.28 325.76-7.1 326.36-8.5L326.36-8.5 327.26-7.85Q326.16-5.3 324.34-4.13 322.51-2.95 320.76-2.95L320.76-2.95Q320.11-2.95 319.46-3.08 318.81-3.2 318.26-3.4L318.26-3.4Q316.56-1.4 314.36 0.1 312.16 1.6 309.91 1.6ZM317.81-6.1L317.81-6.1Q319.01-7.85 319.86-9.85 320.71-11.85 320.71-13.55L320.71-13.55Q320.71-14.7 320.36-15.23 320.01-15.75 319.31-15.75L319.31-15.75Q318.36-15.75 317.36-14.4 316.36-13.05 316.36-11L316.36-11Q316.36-9.95 316.74-8.45 317.11-6.95 317.81-6.1ZM329.01 1.5L329.01 1.5Q327.31 1.5 326.24-0.08 325.16-1.65 325.16-3.7L325.16-3.7Q325.16-5.1 325.61-7 326.06-8.9 326.79-10.7 327.51-12.5 328.29-13.7 329.06-14.9 329.71-14.9L329.71-14.9Q330.06-14.9 330.79-14.53 331.51-14.15 332.06-13.6L332.06-13.6Q331.51-12.8 330.74-11.15 329.96-9.5 329.36-7.6 328.76-5.7 328.76-4.15L328.76-4.15Q328.76-3.95 328.84-3.2 328.91-2.45 329.21-1.8 329.51-1.15 330.26-1.15L330.26-1.15Q331.11-1.15 332.09-2.08 333.06-3 334.09-4.48 335.11-5.95 336.09-7.65 337.06-9.35 337.84-10.95 338.61-12.55 339.11-13.65L339.11-13.65Q339.56-13.6 340.29-13.4 341.01-13.2 341.56-12.88 342.11-12.55 342.11-11.95L342.11-11.95Q342.11-11.8 341.64-10.73 341.16-9.65 340.54-8.15 339.91-6.65 339.44-5.08 338.96-3.5 338.96-2.3L338.96-2.3Q338.96-1.6 339.24-1.07 339.51-0.55 340.31-0.55L340.31-0.55Q341.36-0.55 342.81-1.5 344.26-2.45 345.81-4.25 347.36-6.05 348.56-8.55L348.56-8.55 349.31-7.95Q348.21-5.25 346.46-3.1 344.71-0.95 342.71 0.28 340.71 1.5 338.81 1.5L338.81 1.5Q337.36 1.5 336.64 0.83 335.91 0.15 335.66-0.93 335.41-2 335.36-3.1L335.36-3.1Q335.36-3.35 335.36-3.63 335.36-3.9 335.36-4.1L335.36-4.1Q334.51-2.75 333.51-1.48 332.51-0.2 331.39 0.65 330.26 1.5 329.01 1.5ZM356.51 1.3L356.51 1.3Q354.66 1.3 353.51 0.33 352.36-0.65 352.36-2.3L352.36-2.3Q352.36-3.7 353.06-5.3 353.76-6.9 354.48-8.45 355.21-10 355.21-11.2L355.21-11.2Q355.21-12.35 354.46-13.13 353.71-13.9 352.71-14.4L352.71-14.4Q351.61-11.65 350.23-9.08 348.86-6.5 348.01-5.05L348.01-5.05 347.26-6.5Q347.96-7.8 349.11-10.2 350.26-12.6 351.31-15.55L351.31-15.55Q350.81-16.05 350.81-16.9L350.81-16.9Q350.81-18.2 351.61-19.35 352.41-20.5 353.16-20.5L353.16-20.5Q353.76-20.5 354.03-19.83 354.31-19.15 354.31-18.9L354.31-18.9Q354.31-18.65 354.08-18 353.86-17.35 353.76-17.05L353.76-17.05Q353.81-16.5 354.63-15.98 355.46-15.45 356.51-14.75 357.56-14.05 358.36-13 359.16-11.95 359.16-10.35L359.16-10.35Q359.16-8.9 358.51-7.4 357.86-5.9 357.21-4.6 356.56-3.3 356.56-2.35L356.56-2.35Q356.56-1.65 356.93-1.43 357.31-1.2 357.81-1.2L357.81-1.2Q359.01-1.2 360.31-1.93 361.61-2.65 362.86-3.8 364.11-4.95 365.06-6.23 366.01-7.5 366.51-8.55L366.51-8.55 367.71-7.65Q366.76-5.5 364.96-3.43 363.16-1.35 360.96-0.03 358.76 1.3 356.51 1.3ZM383.6 4.3L383.6 4.3Q382.3 4.3 380.88 3.83 379.45 3.35 378.48 1.9 377.5 0.45 377.5-2.45L377.5-2.45Q377.5-4.45 377.98-6.43 378.45-8.4 379.35-9.73 380.25-11.05 381.6-11.05L381.6-11.05Q382.3-11.05 383.55-10.5L383.55-10.5Q382.6-8.15 382.13-6.1 381.65-4.05 381.65-2.45L381.65-2.45Q381.65-0.45 382.5 0.7 383.35 1.85 384.75 1.85L384.75 1.85Q385.95 1.85 386.98 0.78 388-0.3 389-3.05L389-3.05Q389.75-5.2 390.6-8.22 391.45-11.25 392.3-14.65 393.15-18.05 393.9-21.45 394.65-24.85 395.25-27.78 395.85-30.7 396.2-32.7L396.2-32.7Q393.8-32.65 391.98-32.52 390.15-32.4 388.63-32.15 387.1-31.9 385.5-31.55L385.5-31.55Q385.85-33.9 388-34.9 390.15-35.9 394.5-35.9L394.5-35.9Q396.6-35.9 398.85-35.7 401.1-35.5 403.03-35.25 404.95-35 406-34.8L406-34.8Q405.2-33.45 403.78-33.1 402.35-32.75 401.45-32.75L401.45-32.75Q400.65-32.75 399.8-32.73 398.95-32.7 398.55-32.7L398.55-32.7Q398.9-32.25 399.05-31.73 399.2-31.2 399.2-30.75L399.2-30.75Q399.2-30.1 398.85-27.93 398.5-25.75 397.88-22.63 397.25-19.5 396.4-16 395.55-12.5 394.53-9.15 393.5-5.8 392.3-3.15L392.3-3.15Q390.95-0.25 389.55 1.38 388.15 3 386.65 3.65 385.15 4.3 383.6 4.3ZM402.35 1.6L402.35 1.6Q400.1 1.6 399.28 0.13 398.45-1.35 398.45-3.1L398.45-3.1Q398.45-4.7 398.95-6.38 399.45-8.05 400.32-9.5 401.2-10.95 402.28-11.83 403.35-12.7 404.45-12.7L404.45-12.7Q404.8-12.7 405.28-12.58 405.75-12.45 405.95-12.2L405.95-12.2Q405.35-11.45 404.73-10.35 404.1-9.25 403.57-8.03 403.05-6.8 402.75-5.55 402.45-4.3 402.45-3.25L402.45-3.25Q402.45-2.25 402.82-1.6 403.2-0.95 404.15-0.95L404.15-0.95Q405.1-0.95 406.43-2.02 407.75-3.1 408.95-4.5L408.95-4.5Q407.35-5.95 406.65-7.68 405.95-9.4 405.95-11.85L405.95-11.85Q405.95-12.9 406.48-14.25 407-15.6 408.18-16.6 409.35-17.6 411.35-17.6L411.35-17.6Q413.5-17.6 414.38-16.4 415.25-15.2 415.25-13.55L415.25-13.55Q415.25-11.7 414.28-9.4 413.3-7.1 411.95-5.05L411.95-5.05Q412.55-4.75 413.35-4.75L413.35-4.75Q414.1-4.75 415.15-5.1 416.2-5.45 417.2-6.28 418.2-7.1 418.8-8.5L418.8-8.5 419.7-7.85Q418.6-5.3 416.78-4.13 414.95-2.95 413.2-2.95L413.2-2.95Q412.55-2.95 411.9-3.08 411.25-3.2 410.7-3.4L410.7-3.4Q409-1.4 406.8 0.1 404.6 1.6 402.35 1.6ZM410.25-6.1L410.25-6.1Q411.45-7.85 412.3-9.85 413.15-11.85 413.15-13.55L413.15-13.55Q413.15-14.7 412.8-15.23 412.45-15.75 411.75-15.75L411.75-15.75Q410.8-15.75 409.8-14.4 408.8-13.05 408.8-11L408.8-11Q408.8-9.95 409.18-8.45 409.55-6.95 410.25-6.1ZM421.45 1.5L421.45 1.5Q419.75 1.5 418.67-0.08 417.6-1.65 417.6-3.7L417.6-3.7Q417.6-5.1 418.05-7 418.5-8.9 419.22-10.7 419.95-12.5 420.72-13.7 421.5-14.9 422.15-14.9L422.15-14.9Q422.5-14.9 423.22-14.53 423.95-14.15 424.5-13.6L424.5-13.6Q423.95-12.8 423.17-11.15 422.4-9.5 421.8-7.6 421.2-5.7 421.2-4.15L421.2-4.15Q421.2-3.95 421.27-3.2 421.35-2.45 421.65-1.8 421.95-1.15 422.7-1.15L422.7-1.15Q423.55-1.15 424.52-2.08 425.5-3 426.52-4.48 427.55-5.95 428.52-7.65 429.5-9.35 430.27-10.95 431.05-12.55 431.55-13.65L431.55-13.65Q432-13.6 432.72-13.4 433.45-13.2 434-12.88 434.55-12.55 434.55-11.95L434.55-11.95Q434.55-11.8 434.07-10.73 433.6-9.65 432.97-8.15 432.35-6.65 431.87-5.08 431.4-3.5 431.4-2.3L431.4-2.3Q431.4-1.6 431.67-1.07 431.95-0.55 432.75-0.55L432.75-0.55Q433.8-0.55 435.25-1.5 436.7-2.45 438.25-4.25 439.8-6.05 441-8.55L441-8.55 441.75-7.95Q440.65-5.25 438.9-3.1 437.15-0.95 435.15 0.28 433.15 1.5 431.25 1.5L431.25 1.5Q429.8 1.5 429.07 0.83 428.35 0.15 428.1-0.93 427.85-2 427.8-3.1L427.8-3.1Q427.8-3.35 427.8-3.63 427.8-3.9 427.8-4.1L427.8-4.1Q426.95-2.75 425.95-1.48 424.95-0.2 423.82 0.65 422.7 1.5 421.45 1.5ZM448.95 1.3L448.95 1.3Q447.1 1.3 445.95 0.33 444.8-0.65 444.8-2.3L444.8-2.3Q444.8-3.7 445.5-5.3 446.2-6.9 446.92-8.45 447.65-10 447.65-11.2L447.65-11.2Q447.65-12.35 446.9-13.13 446.15-13.9 445.15-14.4L445.15-14.4Q444.05-11.65 442.67-9.08 441.3-6.5 440.45-5.05L440.45-5.05 439.7-6.5Q440.4-7.8 441.55-10.2 442.7-12.6 443.75-15.55L443.75-15.55Q443.25-16.05 443.25-16.9L443.25-16.9Q443.25-18.2 444.05-19.35 444.85-20.5 445.6-20.5L445.6-20.5Q446.2-20.5 446.47-19.83 446.75-19.15 446.75-18.9L446.75-18.9Q446.75-18.65 446.52-18 446.3-17.35 446.2-17.05L446.2-17.05Q446.25-16.5 447.07-15.98 447.9-15.45 448.95-14.75 450-14.05 450.8-13 451.6-11.95 451.6-10.35L451.6-10.35Q451.6-8.9 450.95-7.4 450.3-5.9 449.65-4.6 449-3.3 449-2.35L449-2.35Q449-1.65 449.37-1.43 449.75-1.2 450.25-1.2L450.25-1.2Q451.45-1.2 452.75-1.93 454.05-2.65 455.3-3.8 456.55-4.95 457.5-6.23 458.45-7.5 458.95-8.55L458.95-8.55 460.15-7.65Q459.2-5.5 457.4-3.43 455.6-1.35 453.4-0.03 451.2 1.3 448.95 1.3ZM474.69 1L474.69 1Q472.74 1 471.72 0.03 470.69-0.95 470.69-2.45L470.69-2.45Q470.69-3.45 471.04-4.58 471.39-5.7 471.74-6.85 472.09-8 472.09-9.05L472.09-9.05Q472.09-10.15 471.57-10.58 471.04-11 470.34-11L470.34-11Q468.84-11 467.27-9.78 465.69-8.55 464.22-6.7 462.74-4.85 461.44-2.85 460.14-0.85 459.19 0.75L459.19 0.75Q458.24 0.75 457.39 0.43 456.54 0.1 455.94-0.7L455.94-0.7Q455.99-0.95 456.52-2.23 457.04-3.5 457.69-5.28 458.34-7.05 458.84-9 459.34-10.95 459.34-12.55L459.34-12.55Q459.69-12.95 460.42-13.35 461.14-13.75 461.94-13.75L461.94-13.75Q463.69-13.75 463.69-12.25L463.69-12.25Q463.69-11.65 463.47-10.48 463.24-9.3 462.84-7.8L462.84-7.8Q464.14-9.55 465.69-11.1 467.24-12.65 468.92-13.63 470.59-14.6 472.29-14.6L472.29-14.6Q474.44-14.6 475.47-13.15 476.49-11.7 476.49-9.95L476.49-9.95Q476.49-8.45 475.99-7.15 475.49-5.85 475.02-4.7 474.54-3.55 474.54-2.45L474.54-2.45Q474.54-1.65 474.92-1.33 475.29-1 475.74-1L475.74-1Q476.94-1 478.24-2.15 479.54-3.3 480.72-5.08 481.89-6.85 482.79-8.65L482.79-8.65 483.64-7.95Q482.59-5.5 481.27-3.48 479.94-1.45 478.32-0.23 476.69 1 474.69 1ZM487.29 2.2L487.29 2.2Q484.09 2.2 482.37 0.48 480.64-1.25 480.64-3.85L480.64-3.85Q480.64-6.05 481.76-8.53 482.89-11 484.79-13.18 486.69-15.35 488.99-16.7 491.29-18.05 493.59-18.05L493.59-18.05Q494.89-18.05 496.06-17.38 497.24-16.7 497.24-14.7L497.24-14.7Q497.24-12.8 496.14-11.15 495.04-9.5 493.19-8.2 491.34-6.9 489.12-6.08 486.89-5.25 484.64-5L484.64-5Q484.59-4.8 484.56-4.58 484.54-4.35 484.54-3.85L484.54-3.85Q484.54-3.6 484.62-2.98 484.69-2.35 485.04-1.65 485.39-0.95 486.19-0.45 486.99 0.05 488.39 0.05L488.39 0.05Q490.49 0.05 492.62-1.13 494.74-2.3 496.62-4.25 498.49-6.2 499.74-8.6L499.74-8.6 500.74-7.8Q499.39-4.8 497.26-2.55 495.14-0.3 492.56 0.95 489.99 2.2 487.29 2.2ZM485.19-6.85L485.19-6.85Q486.49-7 488.09-7.75 489.69-8.5 491.17-9.65 492.64-10.8 493.59-12.18 494.54-13.55 494.54-14.95L494.54-14.95Q494.54-15.5 494.34-15.7 494.14-15.9 493.69-15.9L493.69-15.9Q492.54-15.9 491.29-15.08 490.04-14.25 488.84-12.93 487.64-11.6 486.69-10 485.74-8.4 485.19-6.85ZM500.94 14L500.94 14Q499.69 14 498.61 13.23 497.54 12.45 497.54 10.75L497.54 10.75Q497.54 9.15 498.49 7.88 499.44 6.6 500.94 5.53 502.44 4.45 504.16 3.58 505.89 2.7 507.49 1.95L507.49 1.95Q508.04 0.5 508.71-1.73 509.39-3.95 509.89-5.85L509.89-5.85Q508.34-3.7 506.59-2.05 504.84-0.4 502.69-0.4L502.69-0.4Q501.79-0.4 500.79-0.78 499.79-1.15 499.11-2.08 498.44-3 498.44-4.55L498.44-4.55Q498.44-5.85 498.91-7.7 499.39-9.55 500.11-11.33 500.84-13.1 501.64-14.28 502.44-15.45 503.04-15.45L503.04-15.45Q503.34-15.45 503.91-15.23 504.49-15 505.04-14.63 505.59-14.25 505.74-13.8L505.74-13.8Q505.29-13.2 504.74-12.08 504.19-10.95 503.69-9.58 503.19-8.2 502.86-6.9 502.54-5.6 502.54-4.65L502.54-4.65Q502.54-3.9 502.84-3.35 503.14-2.8 503.99-2.8L503.99-2.8Q505.09-2.8 506.26-3.7 507.44-4.6 508.56-6 509.69-7.4 510.59-8.85L510.59-8.85Q510.69-9.2 510.79-9.95 510.89-10.7 511.14-11.5L511.14-11.5Q511.39-12.35 512.01-13.05 512.64-13.75 513.79-13.75L513.79-13.75Q514.19-13.75 514.54-13.7 514.89-13.65 515.39-13.55L515.39-13.55Q515.39-12.8 514.86-10.63 514.34-8.45 513.49-5.6 512.64-2.75 511.59 0.1L511.59 0.1Q513.69-0.75 515.96-2.73 518.24-4.7 519.64-8.35L519.64-8.35 520.49-7.65Q519.74-5.15 518.21-3.3 516.69-1.45 514.79-0.15 512.89 1.15 510.94 2L510.94 2Q509.59 5.25 508.01 8 506.44 10.75 504.69 12.38 502.94 14 500.94 14ZM500.44 12.15L500.44 12.15Q501.39 12.15 503.09 10.15 504.79 8.15 506.54 4.15L506.54 4.15Q504.94 4.95 503.31 6.03 501.69 7.1 500.59 8.3 499.49 9.5 499.49 10.75L499.49 10.75Q499.49 11.25 499.71 11.7 499.94 12.15 500.44 12.15Z" opacity="1" transform="matrix(1,0,0,1,0,0)" fill="#4b91f1" class="slogan-text-1" data-fill-palette-color="secondary" id="text-1"></path></svg></g></svg></g></svg></g></svg></g><g><svg viewBox="0 0 96.04028598794058 94.11948026818177" height="94.11948026818177" width="96.04028598794058"><g><svg xmlns="http://www.w3.org/2000/svg" xmlns:xlink="http://www.w3.org/1999/xlink" version="1.1" x="0" y="0" viewBox="30 30.3 30 29.400000000000002" style="enable-background:new 0 0 90 90;" xml:space="preserve" height="94.11948026818177" width="96.04028598794058" class="icon-icon-0" data-fill-palette-color="accent" id="icon-0"><g fill="#4b91f1" data-fill-palette-color="accent"><path d="M55.2 30.3C52.7 30.3 50.7 32.2 50.4 34.6H49.5V35.6H50.4C50.6 38 52.7 39.9 55.2 39.9 57.8 39.9 60 37.8 60 35.1S57.9 30.3 55.2 30.3M55.2 38.9C53.1 38.9 51.4 37.2 51.4 35.1S53.1 31.3 55.2 31.3 59 33 59 35.1 57.3 38.9 55.2 38.9" fill="#4b91f1" data-fill-palette-color="accent"></path><path d="M34.8 50.1C32.2 50.1 30 52.2 30 54.9S32.1 59.7 34.8 59.7C37.3 59.7 39.3 57.8 39.6 55.4H40.5V54.4H39.6C39.3 52 37.3 50.1 34.8 50.1M34.8 58.7C32.7 58.7 31 57 31 54.9S32.7 51.1 34.8 51.1 38.6 52.8 38.6 54.9 36.9 58.7 34.8 58.7" fill="#4b91f1" data-fill-palette-color="accent"></path><rect x="42.7" y="54.4" width="1.6" height="1" fill="#4b91f1" data-fill-palette-color="accent"></rect><rect x="46.6" y="54.4" width="1.6" height="1" fill="#4b91f1" data-fill-palette-color="accent"></rect><rect x="50.5" y="54.4" width="1.6" height="1" fill="#4b91f1" data-fill-palette-color="accent"></rect><rect x="49.1" y="48.4" transform="matrix(0.7071 -0.7071 0.7071 0.7071 -20.3086 49.4672)" width="1" height="1.7" fill="#4b91f1" data-fill-palette-color="accent"></rect><rect x="37.7" y="37.1" transform="matrix(0.7071 -0.7071 0.7071 0.7071 -15.6161 38.14)" width="1" height="1.7" fill="#4b91f1" data-fill-palette-color="accent"></rect><rect x="40.6" y="39.9" transform="matrix(0.7071 -0.7071 0.7071 0.7071 -16.7893 40.9694)" width="1" height="1.7" fill="#4b91f1" data-fill-palette-color="accent"></rect><rect x="51.9" y="51.3" transform="matrix(0.7071 -0.7071 0.7071 0.7071 -21.4817 52.2993)" width="1" height="1.7" fill="#4b91f1" data-fill-palette-color="accent"></rect><rect x="46.2" y="45.6" transform="matrix(0.7071 -0.7071 0.7071 0.7071 -19.1355 46.6352)" width="1" height="1.7" fill="#4b91f1" data-fill-palette-color="accent"></rect><rect x="43.4" y="42.8" transform="matrix(0.7071 -0.7071 0.7071 0.7071 -17.9624 43.8029)" width="1" height="1.7" fill="#4b91f1" data-fill-palette-color="accent"></rect><rect x="38.4" y="34.6" width="1.6" height="1" fill="#4b91f1" data-fill-palette-color="accent"></rect><rect x="45.9" y="34.6" width="1.6" height="1" fill="#4b91f1" data-fill-palette-color="accent"></rect><rect x="42.1" y="34.6" width="1.6" height="1" fill="#4b91f1" data-fill-palette-color="accent"></rect><path d="M55.2 32.9C54.3 32.9 53.5 33.6 53.5 34.6 53.5 34.6 53.4 35.6 55.2 37.3 57 35.5 56.9 34.6 56.9 34.6 56.9 33.6 56.1 32.9 55.2 32.9M55.2 35.2C54.8 35.2 54.5 34.9 54.5 34.5S54.8 33.8 55.2 33.8 55.9 34.1 55.9 34.5 55.6 35.2 55.2 35.2" fill="#4b91f1" data-fill-palette-color="accent"></path><path d="M35 52.7C34.9 52.6 34.8 52.6 34.7 52.7L32.9 54C32.8 54.1 32.7 54.2 32.7 54.3V56.4C32.7 56.5 32.8 56.6 32.9 56.6H34.2C34.3 56.6 34.4 56.5 34.4 56.4V55.3C34.4 55.2 34.5 55.1 34.6 55.1H35.1C35.2 55.1 35.3 55.2 35.3 55.3V56.4C35.3 56.5 35.4 56.6 35.5 56.6H36.8C36.9 56.6 37 56.5 37 56.4V54.3C37 54.2 36.9 54 36.8 54z" fill="#4b91f1" data-fill-palette-color="accent"></path><circle cx="55" cy="54.7" r="1.2" fill="#4b91f1" data-fill-palette-color="accent"></circle><circle cx="35.6" cy="35.3" r="1.2" fill="#4b91f1" data-fill-palette-color="accent"></circle></g></svg></g></svg></g></svg></g><defs></defs></svg><rect width="395.52" height="74.40778645529954" fill="none" stroke="none" visibility="hidden"></rect></g></svg></g></svg>